<mxfile host="app.diagrams.net" modified="2021-08-23T13:16:06.819Z" agent="5.0 (Windows NT 10.0; Win64; x64) AppleWebKit/537.36 (KHTML, like Gecko) Chrome/92.0.4515.159 Safari/537.36" etag="gPWbSrx-yzGo-U3mmamm" version="14.9.8" type="github" pages="2">
  <diagram name="Page-1" id="9361dd3d-8414-5efd-6122-117bd74ce7a7">
    <mxGraphModel dx="1422" dy="929" grid="1" gridSize="10" guides="1" tooltips="1" connect="1" arrows="1" fold="1" page="0" pageScale="1.5" pageWidth="826" pageHeight="1169" background="none" math="0" shadow="0">
      <root>
        <mxCell id="0" />
        <mxCell id="1" parent="0" />
        <mxCell id="69" value="" style="fillColor=#DEE8FF;strokeColor=none" parent="1" vertex="1">
          <mxGeometry x="-10" y="-10" width="1160" height="1250" as="geometry" />
        </mxCell>
        <mxCell id="YcMqrONaZRclPtUl02mj-128" value="" style="fillColor=#CCD5EB" parent="1" vertex="1">
          <mxGeometry x="60.599999999999994" y="840" width="1009.4" height="320" as="geometry" />
        </mxCell>
        <mxCell id="YcMqrONaZRclPtUl02mj-96" value="" style="fillColor=#CCD5EB" parent="1" vertex="1">
          <mxGeometry x="60.599999999999994" y="480" width="1009.4" height="320" as="geometry" />
        </mxCell>
        <mxCell id="20" value="" style="fillColor=#CCD5EB" parent="1" vertex="1">
          <mxGeometry x="60.6" y="120" width="1009.4" height="320" as="geometry" />
        </mxCell>
        <mxCell id="2" value="" style="fillColor=#CC4125;strokeColor=#660000" parent="1" vertex="1">
          <mxGeometry x="200" y="150" width="10" height="130" as="geometry" />
        </mxCell>
        <mxCell id="3" value="/GET&#xa;Authorization: {}" style="edgeStyle=none;verticalLabelPosition=top;verticalAlign=bottom;labelPosition=left;align=right" parent="1" edge="1">
          <mxGeometry x="110" y="49.5" width="100" height="100" as="geometry">
            <mxPoint x="110" y="149.5" as="sourcePoint" />
            <mxPoint x="200" y="149.5" as="targetPoint" />
          </mxGeometry>
        </mxCell>
        <mxCell id="4" value="Azure API Gateway" style="shadow=1;fillColor=#A2C4C9;strokeColor=none" parent="1" vertex="1">
          <mxGeometry x="152.5" y="60" width="105" height="50" as="geometry" />
        </mxCell>
        <mxCell id="6" value="" style="fillColor=#CC4125;strokeColor=#660000" parent="1" vertex="1">
          <mxGeometry x="342.5" y="180" width="10" height="80" as="geometry" />
        </mxCell>
        <mxCell id="7" value="APIM Ext Cache" style="shadow=1;fillColor=#A2C4C9;strokeColor=none" parent="1" vertex="1">
          <mxGeometry x="295" y="60" width="105" height="50" as="geometry" />
        </mxCell>
        <mxCell id="8" value="" style="edgeStyle=none;endArrow=none;dashed=1" parent="1" source="7" target="6" edge="1">
          <mxGeometry x="272.3350694444445" y="165" width="100" height="100" as="geometry">
            <mxPoint x="347.2588734567901" y="110" as="sourcePoint" />
            <mxPoint x="347.5761959876544" y="165" as="targetPoint" />
          </mxGeometry>
        </mxCell>
        <mxCell id="9" value="validate()" style="edgeStyle=none;verticalLabelPosition=top;verticalAlign=bottom" parent="1" edge="1">
          <mxGeometry x="220" y="92" width="100" height="100" as="geometry">
            <mxPoint x="210" y="179.5" as="sourcePoint" />
            <mxPoint x="340" y="179.5" as="targetPoint" />
          </mxGeometry>
        </mxCell>
        <mxCell id="11" value="" style="edgeStyle=none;verticalLabelPosition=top;verticalAlign=bottom;endArrow=none;startArrow=classic;dashed=1" parent="1" edge="1">
          <mxGeometry x="220" y="172.25887345679013" width="100" height="100" as="geometry">
            <mxPoint x="210" y="259.7588734567901" as="sourcePoint" />
            <mxPoint x="340" y="259.7588734567901" as="targetPoint" />
          </mxGeometry>
        </mxCell>
        <mxCell id="12" value="" style="edgeStyle=none;verticalLabelPosition=top;verticalAlign=bottom;labelPosition=left;align=right;endArrow=none;startArrow=classic;dashed=1" parent="1" edge="1">
          <mxGeometry x="110" y="179.75887345679013" width="100" height="100" as="geometry">
            <mxPoint x="110" y="279.7588734567901" as="sourcePoint" />
            <mxPoint x="200" y="279.7588734567901" as="targetPoint" />
          </mxGeometry>
        </mxCell>
        <mxCell id="13" value="validate()" style="edgeStyle=none;verticalLabelPosition=top;verticalAlign=bottom;dashed=1" parent="1" edge="1">
          <mxGeometry x="385.45524691358025" y="113.91550925925924" width="100" height="100" as="geometry">
            <mxPoint x="352.5" y="201.20563271604937" as="sourcePoint" />
            <mxPoint x="462.5" y="201.20563271604937" as="targetPoint" />
          </mxGeometry>
        </mxCell>
        <mxCell id="15" value="Azure Function&#xa;Validation Service" style="shadow=1;fillColor=#A2C4C9;strokeColor=none" parent="1" vertex="1">
          <mxGeometry x="462.2839506172839" y="169.99999999999997" width="105" height="50" as="geometry" />
        </mxCell>
        <mxCell id="16" value="" style="edgeStyle=none;endArrow=none" parent="1" source="15" target="17" edge="1">
          <mxGeometry x="437.042824074074" y="270" width="100" height="100" as="geometry">
            <mxPoint x="514.542824074074" y="219.99999999999997" as="sourcePoint" />
            <mxPoint x="514.542824074074" y="239.99999999999997" as="targetPoint" />
          </mxGeometry>
        </mxCell>
        <mxCell id="17" value="" style="fillColor=#CC4125;strokeColor=#660000" parent="1" vertex="1">
          <mxGeometry x="509.7839506172839" y="244.3942901234568" width="10" height="130" as="geometry" />
        </mxCell>
        <mxCell id="19" value="" style="edgeStyle=elbowEdgeStyle;elbow=vertical;verticalLabelPosition=top;verticalAlign=bottom;startArrow=none;" parent="1" source="20" target="17" edge="1">
          <mxGeometry x="350" y="290" width="100" height="100" as="geometry">
            <mxPoint x="350" y="390" as="sourcePoint" />
            <mxPoint x="450" y="290" as="targetPoint" />
          </mxGeometry>
        </mxCell>
        <mxCell id="21" value="" style="fillColor=#CC4125;strokeColor=#660000" parent="1" vertex="1">
          <mxGeometry x="670" y="269.3942901234568" width="10" height="80" as="geometry" />
        </mxCell>
        <mxCell id="22" value="Redis &#xa;(in-memory store)" style="shadow=1;fillColor=#A2C4C9;strokeColor=none" parent="1" vertex="1">
          <mxGeometry x="622.5" y="60" width="105" height="50" as="geometry" />
        </mxCell>
        <mxCell id="23" value="" style="edgeStyle=none;endArrow=none;dashed=1;entryX=0.61;entryY=1;entryDx=0;entryDy=0;entryPerimeter=0;" parent="1" source="22" target="YcMqrONaZRclPtUl02mj-128" edge="1">
          <mxGeometry x="614.4878472222224" y="174.99999999999997" width="100" height="100" as="geometry">
            <mxPoint x="674.6527777777778" y="110" as="sourcePoint" />
            <mxPoint x="675" y="580" as="targetPoint" />
          </mxGeometry>
        </mxCell>
        <mxCell id="24" value="PING via WSO2" style="shadow=1;fillColor=#A2C4C9;strokeColor=none" parent="1" vertex="1">
          <mxGeometry x="750" y="60" width="105" height="50" as="geometry" />
        </mxCell>
        <mxCell id="25" value="" style="edgeStyle=none;endArrow=none;dashed=1" parent="1" source="24" target="26" edge="1">
          <mxGeometry x="727.3350694444446" y="165" width="100" height="100" as="geometry">
            <mxPoint x="802.2588734567901" y="110" as="sourcePoint" />
            <mxPoint x="802.5761959876544" y="165" as="targetPoint" />
          </mxGeometry>
        </mxCell>
        <mxCell id="26" value="" style="fillColor=#CC4125;strokeColor=#660000" parent="1" vertex="1">
          <mxGeometry x="797.4999999999999" y="289.3942901234568" width="10" height="40" as="geometry" />
        </mxCell>
        <mxCell id="27" value="validate()" style="edgeStyle=elbowEdgeStyle;elbow=vertical;verticalLabelPosition=top;verticalAlign=bottom" parent="1" source="17" target="21" edge="1">
          <mxGeometry width="100" height="100" as="geometry">
            <mxPoint x="540" y="370" as="sourcePoint" />
            <mxPoint x="640" y="270" as="targetPoint" />
            <Array as="points">
              <mxPoint x="590" y="270" />
            </Array>
            <mxPoint x="-15" y="-10" as="offset" />
          </mxGeometry>
        </mxCell>
        <mxCell id="28" value="" style="edgeStyle=elbowEdgeStyle;elbow=vertical;dashed=1;verticalLabelPosition=bottom;verticalAlign=top" parent="1" source="21" target="17" edge="1">
          <mxGeometry x="550" y="280" width="100" height="100" as="geometry">
            <mxPoint x="529.7839506172838" y="280" as="sourcePoint" />
            <mxPoint x="680" y="280" as="targetPoint" />
            <Array as="points">
              <mxPoint x="593" y="348" />
            </Array>
          </mxGeometry>
        </mxCell>
        <mxCell id="33" value="" style="edgeStyle=elbowEdgeStyle;elbow=horizontal;endArrow=none;dashed=1" parent="1" source="4" target="2" edge="1">
          <mxGeometry x="230.00000000000003" y="310" width="100" height="100" as="geometry">
            <mxPoint x="230.00000000000003" y="410" as="sourcePoint" />
            <mxPoint x="330" y="310" as="targetPoint" />
          </mxGeometry>
        </mxCell>
        <mxCell id="34" value="validate()" style="edgeStyle=elbowEdgeStyle;elbow=vertical;verticalLabelPosition=top;verticalAlign=bottom" parent="1" edge="1">
          <mxGeometry x="550" y="261.7361111111111" width="100" height="100" as="geometry">
            <mxPoint x="680" y="291.1304012345679" as="sourcePoint" />
            <mxPoint x="797.4999999999999" y="291.1304012345679" as="targetPoint" />
            <Array as="points" />
          </mxGeometry>
        </mxCell>
        <mxCell id="35" value="" style="edgeStyle=elbowEdgeStyle;elbow=vertical;dashed=1;verticalLabelPosition=bottom;verticalAlign=top" parent="1" edge="1">
          <mxGeometry x="560" y="309.65277777777777" width="100" height="100" as="geometry">
            <mxPoint x="797.4999999999999" y="329.0470679012346" as="sourcePoint" />
            <mxPoint x="680" y="329.0470679012346" as="targetPoint" />
            <Array as="points" />
          </mxGeometry>
        </mxCell>
        <mxCell id="38" value="" style="edgeStyle=elbowEdgeStyle;elbow=horizontal;endArrow=none;dashed=1" parent="1" edge="1">
          <mxGeometry x="932.2588734567901" y="240" width="100" height="100" as="geometry">
            <mxPoint x="802.2588734567901" y="329.3942901234568" as="sourcePoint" />
            <mxPoint x="802.2588734567901" y="370" as="targetPoint" />
            <Array as="points">
              <mxPoint x="802.2588734567901" y="350" />
            </Array>
          </mxGeometry>
        </mxCell>
        <mxCell id="39" value="" style="ellipse;fillColor=none" parent="1" vertex="1">
          <mxGeometry x="802.5000000000001" y="304.3942901234568" width="9.999999999999886" height="10" as="geometry" />
        </mxCell>
        <mxCell id="40" value=" - user token&#xa; validation&#xa;&#xa; - Response with &#xa;User principle and &#xa;group membership" style="shape=note;align=left" parent="1" vertex="1">
          <mxGeometry x="829.9729938271605" y="180.17361111111111" width="120.02700617283949" height="109.82638888888889" as="geometry" />
        </mxCell>
        <mxCell id="41" value="" style="edgeStyle=none;endArrow=none;dashed=1" parent="1" source="40" target="39" edge="1">
          <mxGeometry x="1030" y="180" width="100" height="100" as="geometry">
            <mxPoint x="1030" y="280" as="sourcePoint" />
            <mxPoint x="1130" y="180" as="targetPoint" />
          </mxGeometry>
        </mxCell>
        <mxCell id="42" value="" style="fillColor=#CC4125;strokeColor=#660000" parent="1" vertex="1">
          <mxGeometry x="200" y="360" width="10" height="50" as="geometry" />
        </mxCell>
        <mxCell id="43" value="" style="edgeStyle=elbowEdgeStyle;elbow=vertical;dashed=0;verticalLabelPosition=top;verticalAlign=bottom;align=right" parent="1" source="17" target="42" edge="1">
          <mxGeometry x="190" y="329.75887345679007" width="100" height="100" as="geometry">
            <mxPoint x="500" y="310" as="sourcePoint" />
            <mxPoint x="220" y="370" as="targetPoint" />
            <Array as="points" />
          </mxGeometry>
        </mxCell>
        <mxCell id="YcMqrONaZRclPtUl02mj-161" value="&lt;span style=&quot;color: rgba(0 , 0 , 0 , 0) ; font-family: monospace ; font-size: 0px&quot;&gt;%3CmxGraphModel%3E%3Croot%3E%3CmxCell%20id%3D%220%22%2F%3E%3CmxCell%20id%3D%221%22%20parent%3D%220%22%2F%3E%3CmxCell%20id%3D%222%22%20value%3D%22Header%20Populated%20with%20USER_ID%26lt%3Bbr%26gt%3Band%20Authorization%20details%22%20style%3D%22edgeLabel%3Bhtml%3D1%3Balign%3Dcenter%3BverticalAlign%3Dmiddle%3Bresizable%3D0%3Bpoints%3D%5B%5D%3B%22%20vertex%3D%221%22%20connectable%3D%220%22%20parent%3D%221%22%3E%3CmxGeometry%20x%3D%22327.78395061728406%22%20y%3D%221089.571428571429%22%20as%3D%22geometry%22%2F%3E%3C%2FmxCell%3E%3C%2Froot%3E%3C%2FmxGraphModel%3EH&lt;/span&gt;" style="edgeLabel;html=1;align=center;verticalAlign=middle;resizable=0;points=[];" parent="43" vertex="1" connectable="0">
          <mxGeometry relative="1" as="geometry">
            <mxPoint x="-35" y="1" as="offset" />
          </mxGeometry>
        </mxCell>
        <mxCell id="YcMqrONaZRclPtUl02mj-162" value="Header populated with USER_ID and Authorization details" style="edgeLabel;html=1;align=center;verticalAlign=middle;resizable=0;points=[];" parent="43" vertex="1" connectable="0">
          <mxGeometry relative="1" as="geometry">
            <mxPoint x="19" y="1" as="offset" />
          </mxGeometry>
        </mxCell>
        <mxCell id="44" value="" style="edgeStyle=none;dashed=1;endArrow=none" parent="1" source="2" target="42" edge="1">
          <mxGeometry x="50" y="300" width="100" height="100" as="geometry">
            <mxPoint x="50" y="400" as="sourcePoint" />
            <mxPoint x="150" y="300" as="targetPoint" />
          </mxGeometry>
        </mxCell>
        <mxCell id="46" value="" style="edgeStyle=elbowEdgeStyle;elbow=vertical;endArrow=none" parent="1" source="42" edge="1">
          <mxGeometry x="60" y="310" width="100" height="100" as="geometry">
            <mxPoint x="60" y="410" as="sourcePoint" />
            <mxPoint x="150" y="360" as="targetPoint" />
          </mxGeometry>
        </mxCell>
        <mxCell id="47" value="{100..600ms}" style="edgeStyle=elbowEdgeStyle;elbow=horizontal;startArrow=open;endArrow=open;labelPosition=left;align=right" parent="1" edge="1">
          <mxGeometry x="61.20563271604938" y="290" width="100" height="100" as="geometry">
            <mxPoint x="181.20563271604937" y="280" as="sourcePoint" />
            <mxPoint x="181.20563271604937" y="360" as="targetPoint" />
          </mxGeometry>
        </mxCell>
        <mxCell id="52" value="" style="edgeStyle=none;endArrow=none;dashed=1" parent="1" source="6" edge="1">
          <mxGeometry x="376.5711805555559" y="339.6971450617284" width="100" height="100" as="geometry">
            <mxPoint x="451.7361111111112" y="284.6971450617284" as="sourcePoint" />
            <mxPoint x="347.5" y="464.1666666666665" as="targetPoint" />
          </mxGeometry>
        </mxCell>
        <mxCell id="65" value="" style="edgeStyle=none;endArrow=none;dashed=1" parent="1" edge="1">
          <mxGeometry x="1174.0711805555559" y="210" width="100" height="100" as="geometry">
            <mxPoint x="1355" y="110" as="sourcePoint" />
            <mxPoint x="1355" y="539.9999999999998" as="targetPoint" />
          </mxGeometry>
        </mxCell>
        <mxCell id="71" value="API Token&#xa;  Authentication / Authorization" style="rounded=1;fontStyle=1;fillColor=#FFD966;strokeColor=none" parent="1" vertex="1">
          <mxGeometry x="50" y="-10" width="190" height="60" as="geometry" />
        </mxCell>
        <mxCell id="72" value="Flow 1" style="rounded=1;fontStyle=1;fillColor=#FFD966;strokeColor=none" parent="1" vertex="1">
          <mxGeometry x="152.5" y="420" width="87.5" height="30" as="geometry" />
        </mxCell>
        <mxCell id="YcMqrONaZRclPtUl02mj-89" value="-Response caching /GET&#xa;&#xa;-Vary by Authorization Token&#xa;&#xa;- Option to Populate HEADER &#xa;    with USER_ID + CLAIMS" style="shape=note;align=left" parent="1" vertex="1">
          <mxGeometry x="420" y="30" width="170" height="120" as="geometry" />
        </mxCell>
        <mxCell id="YcMqrONaZRclPtUl02mj-93" value="" style="edgeStyle=none;endArrow=none;dashed=1;entryX=0;entryY=1;entryDx=0;entryDy=0;entryPerimeter=0;exitX=1;exitY=0;exitDx=0;exitDy=0;" parent="1" source="YcMqrONaZRclPtUl02mj-94" target="YcMqrONaZRclPtUl02mj-89" edge="1">
          <mxGeometry x="1040" y="190" width="100" height="100" as="geometry">
            <mxPoint x="380" y="170" as="sourcePoint" />
            <mxPoint x="821.211965587625" y="316.04446751999035" as="targetPoint" />
          </mxGeometry>
        </mxCell>
        <mxCell id="YcMqrONaZRclPtUl02mj-94" value="" style="ellipse;fillColor=none" parent="1" vertex="1">
          <mxGeometry x="352.5000000000001" y="180.1742901234568" width="9.999999999999886" height="10" as="geometry" />
        </mxCell>
        <mxCell id="YcMqrONaZRclPtUl02mj-95" value="" style="edgeStyle=elbowEdgeStyle;elbow=vertical;verticalLabelPosition=top;verticalAlign=bottom;endArrow=none;" parent="1" source="6" target="20" edge="1">
          <mxGeometry x="350" y="290" width="100" height="100" as="geometry">
            <mxPoint x="352.5" y="252" as="sourcePoint" />
            <mxPoint x="509.78395061728384" y="252" as="targetPoint" />
          </mxGeometry>
        </mxCell>
        <mxCell id="YcMqrONaZRclPtUl02mj-97" value="" style="fillColor=#CC4125;strokeColor=#660000" parent="1" vertex="1">
          <mxGeometry x="200" y="510" width="10" height="130" as="geometry" />
        </mxCell>
        <mxCell id="YcMqrONaZRclPtUl02mj-98" value="/GET&#xa;Authorization: {}" style="edgeStyle=none;verticalLabelPosition=top;verticalAlign=bottom;labelPosition=left;align=right" parent="1" edge="1">
          <mxGeometry x="110" y="409.5" width="100" height="100" as="geometry">
            <mxPoint x="110" y="509.5" as="sourcePoint" />
            <mxPoint x="200" y="509.5" as="targetPoint" />
          </mxGeometry>
        </mxCell>
        <mxCell id="YcMqrONaZRclPtUl02mj-99" value="" style="fillColor=#CC4125;strokeColor=#660000" parent="1" vertex="1">
          <mxGeometry x="342.5" y="540" width="10" height="80" as="geometry" />
        </mxCell>
        <mxCell id="YcMqrONaZRclPtUl02mj-100" value="validate()" style="edgeStyle=none;verticalLabelPosition=top;verticalAlign=bottom" parent="1" edge="1">
          <mxGeometry x="220" y="452" width="100" height="100" as="geometry">
            <mxPoint x="210" y="539.5" as="sourcePoint" />
            <mxPoint x="340" y="539.5" as="targetPoint" />
          </mxGeometry>
        </mxCell>
        <mxCell id="YcMqrONaZRclPtUl02mj-101" value="" style="edgeStyle=none;verticalLabelPosition=top;verticalAlign=bottom;endArrow=none;startArrow=classic;dashed=1" parent="1" edge="1">
          <mxGeometry x="220" y="532.2588734567901" width="100" height="100" as="geometry">
            <mxPoint x="210" y="619.7588734567901" as="sourcePoint" />
            <mxPoint x="340" y="619.7588734567901" as="targetPoint" />
          </mxGeometry>
        </mxCell>
        <mxCell id="YcMqrONaZRclPtUl02mj-102" value="" style="edgeStyle=none;verticalLabelPosition=top;verticalAlign=bottom;labelPosition=left;align=right;endArrow=none;startArrow=classic;dashed=1" parent="1" edge="1">
          <mxGeometry x="110" y="539.7588734567901" width="100" height="100" as="geometry">
            <mxPoint x="110" y="639.7588734567901" as="sourcePoint" />
            <mxPoint x="200" y="639.7588734567901" as="targetPoint" />
          </mxGeometry>
        </mxCell>
        <mxCell id="YcMqrONaZRclPtUl02mj-103" value="validate()" style="edgeStyle=none;verticalLabelPosition=top;verticalAlign=bottom;dashed=1;entryX=0.293;entryY=0.097;entryDx=0;entryDy=0;entryPerimeter=0;" parent="1" target="YcMqrONaZRclPtUl02mj-109" edge="1">
          <mxGeometry x="385.45524691358025" y="473.91550925925924" width="100" height="100" as="geometry">
            <mxPoint x="353" y="568" as="sourcePoint" />
            <mxPoint x="462.5" y="561.2056327160494" as="targetPoint" />
          </mxGeometry>
        </mxCell>
        <mxCell id="YcMqrONaZRclPtUl02mj-109" value="" style="fillColor=#CC4125;strokeColor=#660000" parent="1" vertex="1">
          <mxGeometry x="797.5" y="550" width="10" height="190" as="geometry" />
        </mxCell>
        <mxCell id="YcMqrONaZRclPtUl02mj-114" value="" style="edgeStyle=elbowEdgeStyle;elbow=horizontal;endArrow=none;dashed=1" parent="1" edge="1">
          <mxGeometry x="932.2588734567901" y="600" width="100" height="100" as="geometry">
            <mxPoint x="802.2588734567898" y="689.3942901234568" as="sourcePoint" />
            <mxPoint x="802.2588734567898" y="729.9999999999998" as="targetPoint" />
            <Array as="points">
              <mxPoint x="802.2588734567901" y="710" />
            </Array>
          </mxGeometry>
        </mxCell>
        <mxCell id="YcMqrONaZRclPtUl02mj-115" value="" style="ellipse;fillColor=none" parent="1" vertex="1">
          <mxGeometry x="802.5000000000001" y="664.3942901234568" width="9.999999999999886" height="10" as="geometry" />
        </mxCell>
        <mxCell id="YcMqrONaZRclPtUl02mj-116" value=" - user token&#xa; validation&#xa;&#xa; - Authorization will be&#xa; in the base template code" style="shape=note;align=left" parent="1" vertex="1">
          <mxGeometry x="829.9729938271605" y="540.1736111111111" width="120.02700617283949" height="109.82638888888889" as="geometry" />
        </mxCell>
        <mxCell id="YcMqrONaZRclPtUl02mj-117" value="" style="edgeStyle=none;endArrow=none;dashed=1" parent="1" source="YcMqrONaZRclPtUl02mj-116" target="YcMqrONaZRclPtUl02mj-115" edge="1">
          <mxGeometry x="1030" y="540" width="100" height="100" as="geometry">
            <mxPoint x="1030" y="640" as="sourcePoint" />
            <mxPoint x="1130" y="540" as="targetPoint" />
          </mxGeometry>
        </mxCell>
        <mxCell id="YcMqrONaZRclPtUl02mj-118" value="" style="fillColor=#CC4125;strokeColor=#660000" parent="1" vertex="1">
          <mxGeometry x="200" y="720" width="10" height="50" as="geometry" />
        </mxCell>
        <mxCell id="YcMqrONaZRclPtUl02mj-119" value="" style="edgeStyle=elbowEdgeStyle;elbow=vertical;dashed=0;verticalLabelPosition=top;verticalAlign=bottom;align=right" parent="1" target="YcMqrONaZRclPtUl02mj-118" edge="1">
          <mxGeometry x="190" y="689.7588734567901" width="100" height="100" as="geometry">
            <mxPoint x="800" y="728" as="sourcePoint" />
            <mxPoint x="220" y="730" as="targetPoint" />
            <Array as="points" />
          </mxGeometry>
        </mxCell>
        <mxCell id="YcMqrONaZRclPtUl02mj-120" value="" style="edgeStyle=none;dashed=1;endArrow=none" parent="1" source="YcMqrONaZRclPtUl02mj-97" target="YcMqrONaZRclPtUl02mj-118" edge="1">
          <mxGeometry x="50" y="660" width="100" height="100" as="geometry">
            <mxPoint x="50" y="760" as="sourcePoint" />
            <mxPoint x="150" y="660" as="targetPoint" />
          </mxGeometry>
        </mxCell>
        <mxCell id="YcMqrONaZRclPtUl02mj-121" value="" style="edgeStyle=elbowEdgeStyle;elbow=vertical;endArrow=none" parent="1" source="YcMqrONaZRclPtUl02mj-118" edge="1">
          <mxGeometry x="60" y="670" width="100" height="100" as="geometry">
            <mxPoint x="60" y="770" as="sourcePoint" />
            <mxPoint x="150" y="719.9999999999998" as="targetPoint" />
          </mxGeometry>
        </mxCell>
        <mxCell id="YcMqrONaZRclPtUl02mj-122" value="{100..600ms}" style="edgeStyle=elbowEdgeStyle;elbow=horizontal;startArrow=open;endArrow=open;labelPosition=left;align=right" parent="1" edge="1">
          <mxGeometry x="61.20563271604938" y="650" width="100" height="100" as="geometry">
            <mxPoint x="181.20563271604942" y="640" as="sourcePoint" />
            <mxPoint x="181.20563271604942" y="719.9999999999998" as="targetPoint" />
          </mxGeometry>
        </mxCell>
        <mxCell id="YcMqrONaZRclPtUl02mj-123" value="" style="edgeStyle=none;endArrow=none;dashed=1" parent="1" source="YcMqrONaZRclPtUl02mj-99" edge="1">
          <mxGeometry x="376.5711805555559" y="699.6971450617284" width="100" height="100" as="geometry">
            <mxPoint x="451.7361111111112" y="644.6971450617284" as="sourcePoint" />
            <mxPoint x="347.5" y="824.1666666666665" as="targetPoint" />
          </mxGeometry>
        </mxCell>
        <mxCell id="YcMqrONaZRclPtUl02mj-124" value="Flow 2" style="rounded=1;fontStyle=1;fillColor=#FFD966;strokeColor=none" parent="1" vertex="1">
          <mxGeometry x="152.5" y="780" width="87.5" height="30" as="geometry" />
        </mxCell>
        <mxCell id="YcMqrONaZRclPtUl02mj-127" value="" style="edgeStyle=elbowEdgeStyle;elbow=vertical;verticalLabelPosition=top;verticalAlign=bottom;endArrow=none;" parent="1" source="YcMqrONaZRclPtUl02mj-99" target="YcMqrONaZRclPtUl02mj-96" edge="1">
          <mxGeometry x="350" y="650" width="100" height="100" as="geometry">
            <mxPoint x="352.5" y="612" as="sourcePoint" />
            <mxPoint x="509.78395061728384" y="612" as="targetPoint" />
          </mxGeometry>
        </mxCell>
        <mxCell id="YcMqrONaZRclPtUl02mj-129" value="" style="fillColor=#CC4125;strokeColor=#660000" parent="1" vertex="1">
          <mxGeometry x="200" y="870" width="10" height="130" as="geometry" />
        </mxCell>
        <mxCell id="YcMqrONaZRclPtUl02mj-130" value="/GET&#xa;Authorization: {}" style="edgeStyle=none;verticalLabelPosition=top;verticalAlign=bottom;labelPosition=left;align=right" parent="1" edge="1">
          <mxGeometry x="110" y="769.5" width="100" height="100" as="geometry">
            <mxPoint x="110" y="869.5" as="sourcePoint" />
            <mxPoint x="200" y="869.5" as="targetPoint" />
          </mxGeometry>
        </mxCell>
        <mxCell id="YcMqrONaZRclPtUl02mj-132" value="validate()" style="edgeStyle=none;verticalLabelPosition=top;verticalAlign=bottom;" parent="1" edge="1">
          <mxGeometry x="220" y="812" width="100" height="100" as="geometry">
            <mxPoint x="210" y="898" as="sourcePoint" />
            <mxPoint x="338" y="898" as="targetPoint" />
          </mxGeometry>
        </mxCell>
        <mxCell id="YcMqrONaZRclPtUl02mj-133" value="" style="edgeStyle=none;verticalLabelPosition=top;verticalAlign=bottom;endArrow=none;startArrow=classic;dashed=1;exitX=0.676;exitY=0.853;exitDx=0;exitDy=0;exitPerimeter=0;" parent="1" source="YcMqrONaZRclPtUl02mj-129" edge="1">
          <mxGeometry x="220" y="892.2588734567901" width="100" height="100" as="geometry">
            <mxPoint x="210" y="979.7588734567901" as="sourcePoint" />
            <mxPoint x="340" y="980" as="targetPoint" />
          </mxGeometry>
        </mxCell>
        <mxCell id="YcMqrONaZRclPtUl02mj-134" value="" style="edgeStyle=none;verticalLabelPosition=top;verticalAlign=bottom;labelPosition=left;align=right;endArrow=none;startArrow=classic;dashed=1" parent="1" edge="1">
          <mxGeometry x="110" y="899.7588734567901" width="100" height="100" as="geometry">
            <mxPoint x="110" y="999.7588734567901" as="sourcePoint" />
            <mxPoint x="200" y="999.7588734567901" as="targetPoint" />
          </mxGeometry>
        </mxCell>
        <mxCell id="YcMqrONaZRclPtUl02mj-136" value="Authorization &#xa;Micro Service" style="shadow=1;fillColor=#A2C4C9;strokeColor=none" parent="1" vertex="1">
          <mxGeometry x="462.2839506172839" y="890" width="105" height="50" as="geometry" />
        </mxCell>
        <mxCell id="YcMqrONaZRclPtUl02mj-137" value="" style="edgeStyle=none;endArrow=none" parent="1" source="YcMqrONaZRclPtUl02mj-136" target="YcMqrONaZRclPtUl02mj-138" edge="1">
          <mxGeometry x="437.042824074074" y="990" width="100" height="100" as="geometry">
            <mxPoint x="514.542824074074" y="940" as="sourcePoint" />
            <mxPoint x="514.542824074074" y="960" as="targetPoint" />
          </mxGeometry>
        </mxCell>
        <mxCell id="YcMqrONaZRclPtUl02mj-138" value="" style="fillColor=#CC4125;strokeColor=#660000" parent="1" vertex="1">
          <mxGeometry x="509.78395061728384" y="964.3942901234568" width="10" height="130" as="geometry" />
        </mxCell>
        <mxCell id="YcMqrONaZRclPtUl02mj-139" value="" style="edgeStyle=elbowEdgeStyle;elbow=vertical;verticalLabelPosition=top;verticalAlign=bottom;startArrow=none;" parent="1" source="YcMqrONaZRclPtUl02mj-128" target="YcMqrONaZRclPtUl02mj-138" edge="1">
          <mxGeometry x="350" y="1010" width="100" height="100" as="geometry">
            <mxPoint x="350" y="1110" as="sourcePoint" />
            <mxPoint x="450" y="1010" as="targetPoint" />
          </mxGeometry>
        </mxCell>
        <mxCell id="YcMqrONaZRclPtUl02mj-140" value="" style="fillColor=#CC4125;strokeColor=#660000" parent="1" vertex="1">
          <mxGeometry x="670" y="989.3942901234568" width="10" height="80" as="geometry" />
        </mxCell>
        <mxCell id="YcMqrONaZRclPtUl02mj-141" value="" style="fillColor=#CC4125;strokeColor=#660000" parent="1" vertex="1">
          <mxGeometry x="797.4999999999999" y="1009.3942901234568" width="10" height="40" as="geometry" />
        </mxCell>
        <mxCell id="YcMqrONaZRclPtUl02mj-142" value="validate()" style="edgeStyle=elbowEdgeStyle;elbow=vertical;verticalLabelPosition=top;verticalAlign=bottom" parent="1" source="YcMqrONaZRclPtUl02mj-138" target="YcMqrONaZRclPtUl02mj-140" edge="1">
          <mxGeometry y="720" width="100" height="100" as="geometry">
            <mxPoint x="540" y="1090" as="sourcePoint" />
            <mxPoint x="640" y="990" as="targetPoint" />
            <Array as="points">
              <mxPoint x="590" y="990" />
            </Array>
            <mxPoint x="-15" y="-10" as="offset" />
          </mxGeometry>
        </mxCell>
        <mxCell id="YcMqrONaZRclPtUl02mj-143" value="" style="edgeStyle=elbowEdgeStyle;elbow=vertical;dashed=1;verticalLabelPosition=bottom;verticalAlign=top" parent="1" source="YcMqrONaZRclPtUl02mj-140" target="YcMqrONaZRclPtUl02mj-138" edge="1">
          <mxGeometry x="550" y="1000" width="100" height="100" as="geometry">
            <mxPoint x="529.7839506172838" y="1000" as="sourcePoint" />
            <mxPoint x="680" y="1000" as="targetPoint" />
            <Array as="points">
              <mxPoint x="593" y="1068" />
            </Array>
          </mxGeometry>
        </mxCell>
        <mxCell id="YcMqrONaZRclPtUl02mj-144" value="validate()" style="edgeStyle=elbowEdgeStyle;elbow=vertical;verticalLabelPosition=top;verticalAlign=bottom" parent="1" edge="1">
          <mxGeometry x="550" y="981.7361111111111" width="100" height="100" as="geometry">
            <mxPoint x="680" y="1011.1304012345679" as="sourcePoint" />
            <mxPoint x="797.5" y="1011.1304012345679" as="targetPoint" />
            <Array as="points" />
          </mxGeometry>
        </mxCell>
        <mxCell id="YcMqrONaZRclPtUl02mj-145" value="" style="edgeStyle=elbowEdgeStyle;elbow=vertical;dashed=1;verticalLabelPosition=bottom;verticalAlign=top" parent="1" edge="1">
          <mxGeometry x="560" y="1029.6527777777778" width="100" height="100" as="geometry">
            <mxPoint x="797.5" y="1049.0470679012346" as="sourcePoint" />
            <mxPoint x="680" y="1049.0470679012346" as="targetPoint" />
            <Array as="points" />
          </mxGeometry>
        </mxCell>
        <mxCell id="YcMqrONaZRclPtUl02mj-146" value="" style="edgeStyle=elbowEdgeStyle;elbow=horizontal;endArrow=none;dashed=1" parent="1" edge="1">
          <mxGeometry x="932.2588734567901" y="960" width="100" height="100" as="geometry">
            <mxPoint x="802.2588734567898" y="1049.3942901234568" as="sourcePoint" />
            <mxPoint x="802.2588734567898" y="1089.9999999999998" as="targetPoint" />
            <Array as="points">
              <mxPoint x="802.2588734567901" y="1070" />
            </Array>
          </mxGeometry>
        </mxCell>
        <mxCell id="YcMqrONaZRclPtUl02mj-147" value="" style="ellipse;fillColor=none" parent="1" vertex="1">
          <mxGeometry x="802.5000000000001" y="1024.3942901234568" width="9.999999999999886" height="10" as="geometry" />
        </mxCell>
        <mxCell id="YcMqrONaZRclPtUl02mj-148" value=" - user token&#xa; validation&#xa;&#xa; - Response with &#xa;User principle and &#xa;group membership" style="shape=note;align=left" parent="1" vertex="1">
          <mxGeometry x="829.9729938271605" y="900.1736111111111" width="120.02700617283949" height="109.82638888888889" as="geometry" />
        </mxCell>
        <mxCell id="YcMqrONaZRclPtUl02mj-149" value="" style="edgeStyle=none;endArrow=none;dashed=1" parent="1" source="YcMqrONaZRclPtUl02mj-148" target="YcMqrONaZRclPtUl02mj-147" edge="1">
          <mxGeometry x="1030" y="900" width="100" height="100" as="geometry">
            <mxPoint x="1030" y="1000" as="sourcePoint" />
            <mxPoint x="1130" y="900" as="targetPoint" />
          </mxGeometry>
        </mxCell>
        <mxCell id="YcMqrONaZRclPtUl02mj-150" value="" style="fillColor=#CC4125;strokeColor=#660000" parent="1" vertex="1">
          <mxGeometry x="200" y="1080" width="10" height="50" as="geometry" />
        </mxCell>
        <mxCell id="YcMqrONaZRclPtUl02mj-151" value="" style="edgeStyle=elbowEdgeStyle;elbow=vertical;dashed=0;verticalLabelPosition=top;verticalAlign=bottom;align=right" parent="1" source="YcMqrONaZRclPtUl02mj-138" target="YcMqrONaZRclPtUl02mj-150" edge="1">
          <mxGeometry x="190" y="1049.75887345679" width="100" height="100" as="geometry">
            <mxPoint x="500" y="1030" as="sourcePoint" />
            <mxPoint x="220" y="1090" as="targetPoint" />
            <Array as="points" />
          </mxGeometry>
        </mxCell>
        <mxCell id="YcMqrONaZRclPtUl02mj-159" value="Header Populated with USER_ID&lt;br&gt;and Authorization details" style="edgeLabel;html=1;align=center;verticalAlign=middle;resizable=0;points=[];" parent="YcMqrONaZRclPtUl02mj-151" vertex="1" connectable="0">
          <mxGeometry relative="1" as="geometry">
            <mxPoint x="-32" y="2" as="offset" />
          </mxGeometry>
        </mxCell>
        <mxCell id="YcMqrONaZRclPtUl02mj-152" value="" style="edgeStyle=none;dashed=1;endArrow=none" parent="1" source="YcMqrONaZRclPtUl02mj-129" target="YcMqrONaZRclPtUl02mj-150" edge="1">
          <mxGeometry x="50" y="1020" width="100" height="100" as="geometry">
            <mxPoint x="50" y="1120" as="sourcePoint" />
            <mxPoint x="150" y="1020" as="targetPoint" />
          </mxGeometry>
        </mxCell>
        <mxCell id="YcMqrONaZRclPtUl02mj-153" value="" style="edgeStyle=elbowEdgeStyle;elbow=vertical;endArrow=none" parent="1" source="YcMqrONaZRclPtUl02mj-150" edge="1">
          <mxGeometry x="60" y="1030" width="100" height="100" as="geometry">
            <mxPoint x="60" y="1130" as="sourcePoint" />
            <mxPoint x="150" y="1079.9999999999998" as="targetPoint" />
          </mxGeometry>
        </mxCell>
        <mxCell id="YcMqrONaZRclPtUl02mj-154" value="{100..600ms}" style="edgeStyle=elbowEdgeStyle;elbow=horizontal;startArrow=open;endArrow=open;labelPosition=left;align=right" parent="1" edge="1">
          <mxGeometry x="61.20563271604938" y="1010" width="100" height="100" as="geometry">
            <mxPoint x="181.20563271604942" y="1000" as="sourcePoint" />
            <mxPoint x="181.20563271604942" y="1079.9999999999998" as="targetPoint" />
          </mxGeometry>
        </mxCell>
        <mxCell id="YcMqrONaZRclPtUl02mj-155" value="Flow 3" style="rounded=1;fontStyle=1;fillColor=#FFD966;strokeColor=none" parent="1" vertex="1">
          <mxGeometry x="152.5" y="1140" width="87.5" height="30" as="geometry" />
        </mxCell>
        <mxCell id="YcMqrONaZRclPtUl02mj-164" value="" style="fillColor=#CC4125;strokeColor=#660000" parent="1" vertex="1">
          <mxGeometry x="342.5" y="880" width="10" height="110" as="geometry" />
        </mxCell>
        <mxCell id="YcMqrONaZRclPtUl02mj-165" value="validate()" style="edgeStyle=none;verticalLabelPosition=top;verticalAlign=bottom;entryX=0;entryY=0.5;entryDx=0;entryDy=0;" parent="1" target="YcMqrONaZRclPtUl02mj-136" edge="1">
          <mxGeometry x="230" y="822" width="100" height="100" as="geometry">
            <mxPoint x="357" y="915" as="sourcePoint" />
            <mxPoint x="348" y="908" as="targetPoint" />
          </mxGeometry>
        </mxCell>
      </root>
    </mxGraphModel>
  </diagram>
  <diagram name="Login Flow" id="Iw6Wm7O26hB8B4KVgsti">
    <mxGraphModel dx="2476" dy="1494" grid="1" gridSize="10" guides="1" tooltips="1" connect="1" arrows="1" fold="1" page="0" pageScale="1.5" pageWidth="826" pageHeight="1169" background="none" math="0" shadow="0">
      <root>
        <mxCell id="cccn5QL6odSmSxgDo-ZI-0" />
        <mxCell id="cccn5QL6odSmSxgDo-ZI-1" parent="cccn5QL6odSmSxgDo-ZI-0" />
        <mxCell id="cccn5QL6odSmSxgDo-ZI-2" value="" style="fillColor=#DEE8FF;strokeColor=none" vertex="1" parent="cccn5QL6odSmSxgDo-ZI-1">
          <mxGeometry x="-10" y="-60" width="1160" height="690" as="geometry" />
        </mxCell>
        <mxCell id="cccn5QL6odSmSxgDo-ZI-5" value="" style="fillColor=#CCD5EB" vertex="1" parent="cccn5QL6odSmSxgDo-ZI-1">
          <mxGeometry x="60.6" y="120" width="1009.4" height="320" as="geometry" />
        </mxCell>
        <mxCell id="cccn5QL6odSmSxgDo-ZI-6" value="" style="fillColor=#CC4125;strokeColor=#660000" vertex="1" parent="cccn5QL6odSmSxgDo-ZI-1">
          <mxGeometry x="200" y="150" width="10" height="130" as="geometry" />
        </mxCell>
        <mxCell id="cccn5QL6odSmSxgDo-ZI-7" value="/GET&#xa;Authorization: {}" style="edgeStyle=none;verticalLabelPosition=top;verticalAlign=bottom;labelPosition=left;align=right" edge="1" parent="cccn5QL6odSmSxgDo-ZI-1">
          <mxGeometry x="110" y="49.5" width="100" height="100" as="geometry">
            <mxPoint x="110" y="149.5" as="sourcePoint" />
            <mxPoint x="200" y="149.5" as="targetPoint" />
          </mxGeometry>
        </mxCell>
        <mxCell id="cccn5QL6odSmSxgDo-ZI-8" value="Azure API Gateway" style="shadow=1;fillColor=#A2C4C9;strokeColor=none" vertex="1" parent="cccn5QL6odSmSxgDo-ZI-1">
          <mxGeometry x="152.5" y="60" width="105" height="50" as="geometry" />
        </mxCell>
        <mxCell id="cccn5QL6odSmSxgDo-ZI-9" value="" style="fillColor=#CC4125;strokeColor=#660000" vertex="1" parent="cccn5QL6odSmSxgDo-ZI-1">
          <mxGeometry x="342.5" y="180" width="10" height="80" as="geometry" />
        </mxCell>
        <mxCell id="cccn5QL6odSmSxgDo-ZI-10" value="APIM Ext Cache" style="shadow=1;fillColor=#A2C4C9;strokeColor=none" vertex="1" parent="cccn5QL6odSmSxgDo-ZI-1">
          <mxGeometry x="295" y="60" width="105" height="50" as="geometry" />
        </mxCell>
        <mxCell id="cccn5QL6odSmSxgDo-ZI-11" value="" style="edgeStyle=none;endArrow=none;dashed=1" edge="1" parent="cccn5QL6odSmSxgDo-ZI-1" source="cccn5QL6odSmSxgDo-ZI-10" target="cccn5QL6odSmSxgDo-ZI-9">
          <mxGeometry x="272.3350694444445" y="165" width="100" height="100" as="geometry">
            <mxPoint x="347.2588734567901" y="110" as="sourcePoint" />
            <mxPoint x="347.5761959876544" y="165" as="targetPoint" />
          </mxGeometry>
        </mxCell>
        <mxCell id="cccn5QL6odSmSxgDo-ZI-12" value="validate()" style="edgeStyle=none;verticalLabelPosition=top;verticalAlign=bottom" edge="1" parent="cccn5QL6odSmSxgDo-ZI-1">
          <mxGeometry x="220" y="92" width="100" height="100" as="geometry">
            <mxPoint x="210" y="179.5" as="sourcePoint" />
            <mxPoint x="340" y="179.5" as="targetPoint" />
          </mxGeometry>
        </mxCell>
        <mxCell id="cccn5QL6odSmSxgDo-ZI-13" value="" style="edgeStyle=none;verticalLabelPosition=top;verticalAlign=bottom;endArrow=none;startArrow=classic;dashed=1" edge="1" parent="cccn5QL6odSmSxgDo-ZI-1">
          <mxGeometry x="220" y="172.25887345679013" width="100" height="100" as="geometry">
            <mxPoint x="210" y="259.7588734567901" as="sourcePoint" />
            <mxPoint x="340" y="259.7588734567901" as="targetPoint" />
          </mxGeometry>
        </mxCell>
        <mxCell id="cccn5QL6odSmSxgDo-ZI-14" value="" style="edgeStyle=none;verticalLabelPosition=top;verticalAlign=bottom;labelPosition=left;align=right;endArrow=none;startArrow=classic;dashed=1" edge="1" parent="cccn5QL6odSmSxgDo-ZI-1">
          <mxGeometry x="110" y="179.75887345679013" width="100" height="100" as="geometry">
            <mxPoint x="110" y="279.7588734567901" as="sourcePoint" />
            <mxPoint x="200" y="279.7588734567901" as="targetPoint" />
          </mxGeometry>
        </mxCell>
        <mxCell id="cccn5QL6odSmSxgDo-ZI-15" value="validate()" style="edgeStyle=none;verticalLabelPosition=top;verticalAlign=bottom;dashed=1;entryX=-0.178;entryY=0.099;entryDx=0;entryDy=0;entryPerimeter=0;" edge="1" parent="cccn5QL6odSmSxgDo-ZI-1" target="cccn5QL6odSmSxgDo-ZI-18">
          <mxGeometry x="385.45524691358025" y="113.91550925925924" width="100" height="100" as="geometry">
            <mxPoint x="352.5" y="201.20563271604937" as="sourcePoint" />
            <mxPoint x="462.5" y="201.20563271604937" as="targetPoint" />
          </mxGeometry>
        </mxCell>
        <mxCell id="cccn5QL6odSmSxgDo-ZI-16" value="JWT Validation&#xa; Service" style="shadow=1;fillColor=#A2C4C9;strokeColor=none" vertex="1" parent="cccn5QL6odSmSxgDo-ZI-1">
          <mxGeometry x="462.2839506172839" y="59.99999999999997" width="105" height="50" as="geometry" />
        </mxCell>
        <mxCell id="cccn5QL6odSmSxgDo-ZI-17" value="" style="edgeStyle=none;endArrow=none" edge="1" parent="cccn5QL6odSmSxgDo-ZI-1" source="cccn5QL6odSmSxgDo-ZI-16" target="cccn5QL6odSmSxgDo-ZI-18">
          <mxGeometry x="437.042824074074" y="270" width="100" height="100" as="geometry">
            <mxPoint x="514.542824074074" y="219.99999999999997" as="sourcePoint" />
            <mxPoint x="514.542824074074" y="239.99999999999997" as="targetPoint" />
          </mxGeometry>
        </mxCell>
        <mxCell id="cccn5QL6odSmSxgDo-ZI-18" value="" style="fillColor=#CC4125;strokeColor=#660000" vertex="1" parent="cccn5QL6odSmSxgDo-ZI-1">
          <mxGeometry x="509.78" y="180" width="10" height="230" as="geometry" />
        </mxCell>
        <mxCell id="cccn5QL6odSmSxgDo-ZI-20" value="" style="fillColor=#CC4125;strokeColor=#660000" vertex="1" parent="cccn5QL6odSmSxgDo-ZI-1">
          <mxGeometry x="670" y="269.3942901234568" width="10" height="80" as="geometry" />
        </mxCell>
        <mxCell id="cccn5QL6odSmSxgDo-ZI-21" value="Redis &#xa;(in-memory store)" style="shadow=1;fillColor=#A2C4C9;strokeColor=none" vertex="1" parent="cccn5QL6odSmSxgDo-ZI-1">
          <mxGeometry x="622.5" y="60" width="105" height="50" as="geometry" />
        </mxCell>
        <mxCell id="cccn5QL6odSmSxgDo-ZI-22" value="" style="edgeStyle=none;endArrow=none;dashed=1;" edge="1" parent="cccn5QL6odSmSxgDo-ZI-1" source="cccn5QL6odSmSxgDo-ZI-21">
          <mxGeometry x="614.4878472222224" y="174.99999999999997" width="100" height="100" as="geometry">
            <mxPoint x="674.6527777777778" y="110" as="sourcePoint" />
            <mxPoint x="676" y="430" as="targetPoint" />
          </mxGeometry>
        </mxCell>
        <mxCell id="cccn5QL6odSmSxgDo-ZI-23" value="PING / Azure AD" style="shadow=1;fillColor=#A2C4C9;strokeColor=none" vertex="1" parent="cccn5QL6odSmSxgDo-ZI-1">
          <mxGeometry x="750" y="60" width="105" height="50" as="geometry" />
        </mxCell>
        <mxCell id="cccn5QL6odSmSxgDo-ZI-24" value="" style="edgeStyle=none;endArrow=none;dashed=1" edge="1" parent="cccn5QL6odSmSxgDo-ZI-1" source="cccn5QL6odSmSxgDo-ZI-23" target="cccn5QL6odSmSxgDo-ZI-25">
          <mxGeometry x="727.3350694444446" y="165" width="100" height="100" as="geometry">
            <mxPoint x="802.2588734567901" y="110" as="sourcePoint" />
            <mxPoint x="802.5761959876544" y="165" as="targetPoint" />
          </mxGeometry>
        </mxCell>
        <mxCell id="cccn5QL6odSmSxgDo-ZI-25" value="" style="fillColor=#CC4125;strokeColor=#660000" vertex="1" parent="cccn5QL6odSmSxgDo-ZI-1">
          <mxGeometry x="797.4999999999999" y="289.3942901234568" width="10" height="40" as="geometry" />
        </mxCell>
        <mxCell id="cccn5QL6odSmSxgDo-ZI-26" value="validate()" style="edgeStyle=elbowEdgeStyle;elbow=vertical;verticalLabelPosition=top;verticalAlign=bottom" edge="1" parent="cccn5QL6odSmSxgDo-ZI-1" source="cccn5QL6odSmSxgDo-ZI-18" target="cccn5QL6odSmSxgDo-ZI-20">
          <mxGeometry width="100" height="100" as="geometry">
            <mxPoint x="540" y="370" as="sourcePoint" />
            <mxPoint x="640" y="270" as="targetPoint" />
            <Array as="points">
              <mxPoint x="590" y="270" />
            </Array>
            <mxPoint x="-15" y="-10" as="offset" />
          </mxGeometry>
        </mxCell>
        <mxCell id="cccn5QL6odSmSxgDo-ZI-27" value="" style="edgeStyle=elbowEdgeStyle;elbow=vertical;dashed=1;verticalLabelPosition=bottom;verticalAlign=top" edge="1" parent="cccn5QL6odSmSxgDo-ZI-1" source="cccn5QL6odSmSxgDo-ZI-20" target="cccn5QL6odSmSxgDo-ZI-18">
          <mxGeometry x="550" y="280" width="100" height="100" as="geometry">
            <mxPoint x="529.7839506172838" y="280" as="sourcePoint" />
            <mxPoint x="680" y="280" as="targetPoint" />
            <Array as="points">
              <mxPoint x="593" y="348" />
            </Array>
          </mxGeometry>
        </mxCell>
        <mxCell id="cccn5QL6odSmSxgDo-ZI-28" value="" style="edgeStyle=elbowEdgeStyle;elbow=horizontal;endArrow=none;dashed=1" edge="1" parent="cccn5QL6odSmSxgDo-ZI-1" source="cccn5QL6odSmSxgDo-ZI-8" target="cccn5QL6odSmSxgDo-ZI-6">
          <mxGeometry x="230.00000000000003" y="310" width="100" height="100" as="geometry">
            <mxPoint x="230.00000000000003" y="410" as="sourcePoint" />
            <mxPoint x="330" y="310" as="targetPoint" />
          </mxGeometry>
        </mxCell>
        <mxCell id="cccn5QL6odSmSxgDo-ZI-29" value="validate()" style="edgeStyle=elbowEdgeStyle;elbow=vertical;verticalLabelPosition=top;verticalAlign=bottom" edge="1" parent="cccn5QL6odSmSxgDo-ZI-1">
          <mxGeometry x="550" y="261.7361111111111" width="100" height="100" as="geometry">
            <mxPoint x="680" y="291.1304012345679" as="sourcePoint" />
            <mxPoint x="797.4999999999999" y="291.1304012345679" as="targetPoint" />
            <Array as="points" />
          </mxGeometry>
        </mxCell>
        <mxCell id="cccn5QL6odSmSxgDo-ZI-30" value="" style="edgeStyle=elbowEdgeStyle;elbow=vertical;dashed=1;verticalLabelPosition=bottom;verticalAlign=top" edge="1" parent="cccn5QL6odSmSxgDo-ZI-1">
          <mxGeometry x="560" y="309.65277777777777" width="100" height="100" as="geometry">
            <mxPoint x="797.4999999999999" y="329.0470679012346" as="sourcePoint" />
            <mxPoint x="680" y="329.0470679012346" as="targetPoint" />
            <Array as="points" />
          </mxGeometry>
        </mxCell>
        <mxCell id="cccn5QL6odSmSxgDo-ZI-31" value="" style="edgeStyle=elbowEdgeStyle;elbow=horizontal;endArrow=none;dashed=1" edge="1" parent="cccn5QL6odSmSxgDo-ZI-1">
          <mxGeometry x="932.2588734567901" y="240" width="100" height="100" as="geometry">
            <mxPoint x="802.2588734567901" y="329.3942901234568" as="sourcePoint" />
            <mxPoint x="802.2588734567901" y="370" as="targetPoint" />
            <Array as="points">
              <mxPoint x="802.2588734567901" y="350" />
            </Array>
          </mxGeometry>
        </mxCell>
        <mxCell id="cccn5QL6odSmSxgDo-ZI-32" value="" style="ellipse;fillColor=none" vertex="1" parent="cccn5QL6odSmSxgDo-ZI-1">
          <mxGeometry x="802.5000000000001" y="304.3942901234568" width="9.999999999999886" height="10" as="geometry" />
        </mxCell>
        <mxCell id="cccn5QL6odSmSxgDo-ZI-33" value=" - user token&#xa; validation&#xa;&#xa; - Response with &#xa;User principle and &#xa;group membership" style="shape=note;align=left" vertex="1" parent="cccn5QL6odSmSxgDo-ZI-1">
          <mxGeometry x="829.9729938271605" y="180.17361111111111" width="120.02700617283949" height="109.82638888888889" as="geometry" />
        </mxCell>
        <mxCell id="cccn5QL6odSmSxgDo-ZI-34" value="" style="edgeStyle=none;endArrow=none;dashed=1" edge="1" parent="cccn5QL6odSmSxgDo-ZI-1" source="cccn5QL6odSmSxgDo-ZI-33" target="cccn5QL6odSmSxgDo-ZI-32">
          <mxGeometry x="1030" y="180" width="100" height="100" as="geometry">
            <mxPoint x="1030" y="280" as="sourcePoint" />
            <mxPoint x="1130" y="180" as="targetPoint" />
          </mxGeometry>
        </mxCell>
        <mxCell id="cccn5QL6odSmSxgDo-ZI-35" value="" style="fillColor=#CC4125;strokeColor=#660000" vertex="1" parent="cccn5QL6odSmSxgDo-ZI-1">
          <mxGeometry x="200" y="360" width="10" height="50" as="geometry" />
        </mxCell>
        <mxCell id="cccn5QL6odSmSxgDo-ZI-36" value="" style="edgeStyle=elbowEdgeStyle;elbow=vertical;dashed=0;verticalLabelPosition=top;verticalAlign=bottom;align=right" edge="1" parent="cccn5QL6odSmSxgDo-ZI-1" source="cccn5QL6odSmSxgDo-ZI-18" target="cccn5QL6odSmSxgDo-ZI-35">
          <mxGeometry x="190" y="329.75887345679007" width="100" height="100" as="geometry">
            <mxPoint x="500" y="310" as="sourcePoint" />
            <mxPoint x="220" y="370" as="targetPoint" />
            <Array as="points" />
          </mxGeometry>
        </mxCell>
        <mxCell id="cccn5QL6odSmSxgDo-ZI-37" value="&lt;span style=&quot;color: rgba(0 , 0 , 0 , 0) ; font-family: monospace ; font-size: 0px&quot;&gt;%3CmxGraphModel%3E%3Croot%3E%3CmxCell%20id%3D%220%22%2F%3E%3CmxCell%20id%3D%221%22%20parent%3D%220%22%2F%3E%3CmxCell%20id%3D%222%22%20value%3D%22Header%20Populated%20with%20USER_ID%26lt%3Bbr%26gt%3Band%20Authorization%20details%22%20style%3D%22edgeLabel%3Bhtml%3D1%3Balign%3Dcenter%3BverticalAlign%3Dmiddle%3Bresizable%3D0%3Bpoints%3D%5B%5D%3B%22%20vertex%3D%221%22%20connectable%3D%220%22%20parent%3D%221%22%3E%3CmxGeometry%20x%3D%22327.78395061728406%22%20y%3D%221089.571428571429%22%20as%3D%22geometry%22%2F%3E%3C%2FmxCell%3E%3C%2Froot%3E%3C%2FmxGraphModel%3EH&lt;/span&gt;" style="edgeLabel;html=1;align=center;verticalAlign=middle;resizable=0;points=[];" vertex="1" connectable="0" parent="cccn5QL6odSmSxgDo-ZI-36">
          <mxGeometry relative="1" as="geometry">
            <mxPoint x="-35" y="1" as="offset" />
          </mxGeometry>
        </mxCell>
        <mxCell id="cccn5QL6odSmSxgDo-ZI-100" value="HEADER with CLAIMS&amp;nbsp;" style="edgeLabel;html=1;align=center;verticalAlign=middle;resizable=0;points=[];" vertex="1" connectable="0" parent="cccn5QL6odSmSxgDo-ZI-36">
          <mxGeometry relative="1" as="geometry">
            <mxPoint x="-67" y="-1" as="offset" />
          </mxGeometry>
        </mxCell>
        <mxCell id="cccn5QL6odSmSxgDo-ZI-39" value="" style="edgeStyle=none;dashed=1;endArrow=none" edge="1" parent="cccn5QL6odSmSxgDo-ZI-1" source="cccn5QL6odSmSxgDo-ZI-6" target="cccn5QL6odSmSxgDo-ZI-35">
          <mxGeometry x="50" y="300" width="100" height="100" as="geometry">
            <mxPoint x="50" y="400" as="sourcePoint" />
            <mxPoint x="150" y="300" as="targetPoint" />
          </mxGeometry>
        </mxCell>
        <mxCell id="cccn5QL6odSmSxgDo-ZI-40" value="" style="edgeStyle=elbowEdgeStyle;elbow=vertical;endArrow=none" edge="1" parent="cccn5QL6odSmSxgDo-ZI-1" source="cccn5QL6odSmSxgDo-ZI-35">
          <mxGeometry x="60" y="310" width="100" height="100" as="geometry">
            <mxPoint x="60" y="410" as="sourcePoint" />
            <mxPoint x="150" y="360" as="targetPoint" />
          </mxGeometry>
        </mxCell>
        <mxCell id="cccn5QL6odSmSxgDo-ZI-41" value="" style="edgeStyle=elbowEdgeStyle;elbow=horizontal;startArrow=open;endArrow=open;labelPosition=left;align=right" edge="1" parent="cccn5QL6odSmSxgDo-ZI-1">
          <mxGeometry x="61.20563271604938" y="290" width="100" height="100" as="geometry">
            <mxPoint x="181.20563271604937" y="280" as="sourcePoint" />
            <mxPoint x="181.20563271604937" y="360" as="targetPoint" />
          </mxGeometry>
        </mxCell>
        <mxCell id="cccn5QL6odSmSxgDo-ZI-42" value="" style="edgeStyle=none;endArrow=none;dashed=1" edge="1" parent="cccn5QL6odSmSxgDo-ZI-1" source="cccn5QL6odSmSxgDo-ZI-9">
          <mxGeometry x="376.5711805555559" y="339.6971450617284" width="100" height="100" as="geometry">
            <mxPoint x="451.7361111111112" y="284.6971450617284" as="sourcePoint" />
            <mxPoint x="348" y="270" as="targetPoint" />
          </mxGeometry>
        </mxCell>
        <mxCell id="cccn5QL6odSmSxgDo-ZI-43" value="" style="edgeStyle=none;endArrow=none;dashed=1" edge="1" parent="cccn5QL6odSmSxgDo-ZI-1">
          <mxGeometry x="1174.0711805555559" y="210" width="100" height="100" as="geometry">
            <mxPoint x="1355" y="110" as="sourcePoint" />
            <mxPoint x="1355" y="539.9999999999998" as="targetPoint" />
          </mxGeometry>
        </mxCell>
        <mxCell id="cccn5QL6odSmSxgDo-ZI-44" value="API Token&#xa;  Authentication / Authorization" style="rounded=1;fontStyle=1;fillColor=#FFD966;strokeColor=none" vertex="1" parent="cccn5QL6odSmSxgDo-ZI-1">
          <mxGeometry x="50" y="-10" width="190" height="60" as="geometry" />
        </mxCell>
        <mxCell id="cccn5QL6odSmSxgDo-ZI-45" value="Login Flow" style="rounded=1;fontStyle=1;fillColor=#FFD966;strokeColor=none" vertex="1" parent="cccn5QL6odSmSxgDo-ZI-1">
          <mxGeometry x="152.5" y="420" width="87.5" height="30" as="geometry" />
        </mxCell>
        <mxCell id="cccn5QL6odSmSxgDo-ZI-46" value="-Response caching /validateJWT&#xa;&#xa;-Vary by Authorization Token&#xa;&#xa;- Option to Populate HEADER &#xa;    with USER_ID + CLAIMS" style="shape=note;align=left" vertex="1" parent="cccn5QL6odSmSxgDo-ZI-1">
          <mxGeometry x="597.5" y="470" width="200" height="140" as="geometry" />
        </mxCell>
        <mxCell id="cccn5QL6odSmSxgDo-ZI-47" value="" style="edgeStyle=none;endArrow=none;dashed=1;entryX=0;entryY=0;entryDx=0;entryDy=0;entryPerimeter=0;exitX=0;exitY=1;exitDx=0;exitDy=0;" edge="1" parent="cccn5QL6odSmSxgDo-ZI-1" source="cccn5QL6odSmSxgDo-ZI-18" target="cccn5QL6odSmSxgDo-ZI-46">
          <mxGeometry x="1040" y="190" width="100" height="100" as="geometry">
            <mxPoint x="380" y="170" as="sourcePoint" />
            <mxPoint x="821.211965587625" y="316.04446751999035" as="targetPoint" />
          </mxGeometry>
        </mxCell>
        <mxCell id="cccn5QL6odSmSxgDo-ZI-48" value="" style="ellipse;fillColor=none" vertex="1" parent="cccn5QL6odSmSxgDo-ZI-1">
          <mxGeometry x="509.7800000000001" y="390.0042901234568" width="9.999999999999886" height="10" as="geometry" />
        </mxCell>
        <mxCell id="cccn5QL6odSmSxgDo-ZI-49" value="" style="edgeStyle=elbowEdgeStyle;elbow=vertical;verticalLabelPosition=top;verticalAlign=bottom;endArrow=none;" edge="1" parent="cccn5QL6odSmSxgDo-ZI-1" source="cccn5QL6odSmSxgDo-ZI-9" target="cccn5QL6odSmSxgDo-ZI-5">
          <mxGeometry x="350" y="290" width="100" height="100" as="geometry">
            <mxPoint x="352.5" y="252" as="sourcePoint" />
            <mxPoint x="509.78395061728384" y="252" as="targetPoint" />
          </mxGeometry>
        </mxCell>
      </root>
    </mxGraphModel>
  </diagram>
</mxfile>
